<svg xmlns="http://www.w3.org/2000/svg" width="303.829" height="233.995" viewBox="0 0 303.829 233.995"><defs><style>.a{opacity:0.67;}.b,.d{fill:#fff;}.b,.c,.h{mix-blend-mode:soft-light;}.b,.c,.g,.h{isolation:isolate;}.e,.h{fill:none;}.f{fill:#c7daea;}.g{fill:#d6e7f2;opacity:0.5;mix-blend-mode:color-burn;}.h{stroke:#fff;stroke-miterlimit:10;stroke-width:2px;}</style></defs><g class="a" transform="translate(-41 -527.115)"><path class="b" d="M87.81,295.2H74.437V281.824H62.228V295.2H48.855v12.207H62.228v13.373H74.437V307.405H87.81Z" transform="translate(-7.855 274.531)"/><path class="b" d="M154.512,83.183H109.523a20.235,20.235,0,0,0-20.174,20.175v20.408a20.236,20.236,0,0,0,20.174,20.174h33.583l6.4,8.278a2.889,2.889,0,0,0,4.911-.564l3.691-8.056a20.237,20.237,0,0,0,16.578-19.832V103.358A20.234,20.234,0,0,0,154.512,83.183Zm-44.989,36.641a5.566,5.566,0,1,1,5.568-5.569A5.566,5.566,0,0,1,109.523,119.824Zm22.61,0a5.566,5.566,0,1,1,5.566-5.569A5.569,5.569,0,0,1,132.133,119.824Zm22.613,0a5.566,5.566,0,1,1,5.561-5.569A5.567,5.567,0,0,1,154.746,119.824Z" transform="translate(170.145 583.531)"/><g class="c" transform="translate(127.499 456.404) rotate(-30)"><path class="d" d="M116.344,181.693l-24.138.56a9.319,9.319,0,1,0,.432,18.633l24.137-.56a9.319,9.319,0,0,0-.431-18.633Z"/><path class="e" d="M106.132,200.441l5.326-3.3,1.926-6.057-2.116-5.618-4.16-3.557-14.9.345a9.319,9.319,0,1,0,.432,18.633l14.183-.329Z"/><path class="d" d="M113.384,191.083l-1.926,6.057-5.326,3.3.689.116,9.954-.231a9.319,9.319,0,0,0-.431-18.633l-9.236.215,4.16,3.557Z"/><path class="e" d="M116.344,181.693l-8.474.2a10.586,10.586,0,0,1,.432,18.632l8.473-.2a9.319,9.319,0,0,0-.431-18.633Z"/><path class="e" d="M112.377,191.107a9.331,9.331,0,0,0-9.519-9.1l-10.652.247a9.319,9.319,0,1,0,.432,18.633l10.652-.247A9.33,9.33,0,0,0,112.377,191.107Z"/><path class="f" d="M113.648,191.077a10.6,10.6,0,0,0-5.778-9.186l-5.012.115a9.319,9.319,0,0,1,.432,18.633l5.012-.116A10.6,10.6,0,0,0,113.648,191.077Z"/><path class="g" d="M113.648,191.077a10.6,10.6,0,0,0-5.778-9.186l-5.012.115a9.319,9.319,0,0,1,.432,18.633l5.012-.116A10.6,10.6,0,0,0,113.648,191.077Z"/></g><path class="h" d="M116.774,410.77h-9.12v-9.12H99.328v9.12H90.207V419.1h9.121v9.12h8.327V419.1h9.12Z" transform="translate(51.145 248.531)"/><path class="h" d="M72.781,187.114a4.03,4.03,0,0,0-5.649-.67l-.806.634-.808-.631a3.96,3.96,0,0,0-2.476-.853,4.019,4.019,0,0,0-2.441,7.219l5.741,4.495,5.772-4.545a4.034,4.034,0,0,0,.667-5.649Z" transform="translate(7.145 562.531)"/><path class="h" d="M72.781,187.114a4.03,4.03,0,0,0-5.649-.67l-.806.634-.808-.631a3.96,3.96,0,0,0-2.476-.853,4.019,4.019,0,0,0-2.441,7.219l5.741,4.495,5.772-4.545a4.034,4.034,0,0,0,.667-5.649Z" transform="translate(118.145 342.531)"/></g></svg>