<svg xmlns="http://www.w3.org/2000/svg" width="303.479" height="238.999" viewBox="0 0 303.479 238.999"><defs><style>.a{opacity:0.67;}.b,.d{fill:none;stroke:#fff;stroke-width:2px;}.b{stroke-miterlimit:10;}.b,.c,.g{mix-blend-mode:soft-light;isolation:isolate;}.d{stroke-linecap:round;stroke-linejoin:round;}.e,.g{fill:#fff;}.f{fill:#0f1b29;}.h{fill:#c7daea;}</style></defs><g transform="translate(-36.326 -37.748)"><g class="a" transform="translate(-42 -9)"><path class="b" d="M188.665,53a4.029,4.029,0,0,0-5.648-.669l-.806.634-.809-.631a3.951,3.951,0,0,0-2.475-.853,4.019,4.019,0,0,0-2.442,7.219l5.742,4.494L188,58.648a4.033,4.033,0,0,0,.666-5.65Z" transform="translate(-55.855 201.531)"/><g class="c" transform="translate(-287.855 -263.469)"><path class="d" d="M436.951,323.3v45.3h-69.77V323.3l34.885,30.108Z"/><line class="d" x2="52.51" transform="translate(376.959 323.299)"/><path class="e" d="M447.848,323.3a13.086,13.086,0,1,1-13.087-13.086A13.089,13.089,0,0,1,447.848,323.3Z"/><path class="f" d="M440.19,320.44a3.391,3.391,0,0,0-4.754-.563l-.677.533-.68-.531a3.336,3.336,0,0,0-2.083-.718,3.373,3.373,0,0,0-2.67,1.294,3.407,3.407,0,0,0,.614,4.78l4.832,3.784,4.857-3.826a3.391,3.391,0,0,0,.561-4.753Z"/></g><g class="c" transform="translate(-34.855 -3.469)"><path class="e" d="M403.182,198.866H391.207V186.891H380.272v11.976H368.3V209.8h11.975v11.975h10.935V209.8h11.975Z"/><path class="e" d="M385.938,235.211a30.724,30.724,0,1,1,30.723-30.724A30.759,30.759,0,0,1,385.938,235.211Zm0-58.67a27.947,27.947,0,1,0,27.945,27.946A27.978,27.978,0,0,0,385.938,176.541Z"/></g><path class="g" d="M375.975,88.861a5.495,5.495,0,0,0-7.7-.913l-1.1.865-1.1-.861a5.4,5.4,0,0,0-3.375-1.163,5.48,5.48,0,0,0-3.33,9.843l7.829,6.13,7.871-6.2a5.5,5.5,0,0,0,.91-7.7Z" transform="translate(-24.855 -31.469)"/><g class="c" transform="matrix(0.891, -0.454, 0.454, 0.891, -237.53, 223.71)"><path class="e" d="M434.313,151.311a12.087,12.087,0,1,1-12.086-12.087A12.088,12.088,0,0,1,434.313,151.311Z"/><rect class="h" width="24.174" height="1.341" transform="translate(410.139 150.642)"/></g></g><path class="b" d="M116.774,410.77h-9.12v-9.12H99.328v9.12H90.207V419.1h9.121v9.12h8.327V419.1h9.12Z" transform="translate(102.145 -152.469)"/></g></svg>