<svg xmlns="http://www.w3.org/2000/svg" width="288.444" height="190.084" viewBox="0 0 288.444 190.084"><defs><style>.a{fill:#00d1fb;}.b{fill:#ffcf3b;}</style></defs><g transform="translate(-293.794 -144.21)"><g transform="translate(293.794 144.21)"><g transform="translate(63.648 70.362)"><path class="a" d="M491.538,381.034a1.073,1.073,0,0,0,1.065,0c1.086-.619,26.623-15.315,26.623-32.445a15.2,15.2,0,0,0-27.155-9.385,15.195,15.195,0,0,0-27.155,9.385C464.916,365.719,490.452,380.415,491.538,381.034Z" transform="translate(-464.916 -333.383)"/></g><path class="b" d="M338.516,164.49q5.07,5.028,5.07,15.168v25.721H324.955V182.874q0-7.748-5.523-7.749a6.454,6.454,0,0,0-5.07,2.185q-1.938,2.185-1.937,6.883v21.187H293.794V144.21h18.631v19.7a18.831,18.831,0,0,1,12.7-4.452Q333.446,159.461,338.516,164.49Z" transform="translate(-293.794 -144.21)"/><g transform="translate(57.129 15.251)"><path class="b" d="M497.511,212.913H466.184a7.589,7.589,0,0,0,3.3,3.915,11.209,11.209,0,0,0,5.77,1.36,14.584,14.584,0,0,0,4.988-.741,17.5,17.5,0,0,0,4.41-2.556l9.728,9.81q-6.6,7.255-19.7,7.254a32.394,32.394,0,0,1-14.344-3.009,22.768,22.768,0,0,1-9.562-8.367,23.316,23.316,0,0,1-.041-24.113,22.815,22.815,0,0,1,9.151-8.285,30.137,30.137,0,0,1,25.556-.248,21.449,21.449,0,0,1,8.985,8,23.1,23.1,0,0,1,3.339,12.613Q497.758,208.957,497.511,212.913Zm-29.183-13.438a7.43,7.43,0,0,0-2.473,4.452h14.509a7.579,7.579,0,0,0-2.473-4.41,7.137,7.137,0,0,0-4.782-1.608A7.257,7.257,0,0,0,468.328,199.475Z" transform="translate(-447.389 -185.213)"/></g><g transform="translate(110.712 15.251)"><path class="b" d="M632.012,190.531q6.264,5.317,6.265,16.363v24.237H620.966V225.2q-3.215,6.761-12.778,6.76a20.394,20.394,0,0,1-9.11-1.855,13.064,13.064,0,0,1-7.626-12.16q0-6.678,5.111-10.14t15.5-3.462h7.5q-.908-5.275-8.491-5.276a21.292,21.292,0,0,0-6.183.948,17.382,17.382,0,0,0-5.359,2.6L593.6,190.324a32.778,32.778,0,0,1,9.357-3.751,45.218,45.218,0,0,1,10.923-1.361Q625.747,185.213,632.012,190.531Zm-14.674,29.141a6.191,6.191,0,0,0,2.308-3.214v-3.133H615.03q-5.688,0-5.688,3.792a3.281,3.281,0,0,0,1.2,2.6,4.815,4.815,0,0,0,3.256,1.03A6.131,6.131,0,0,0,617.339,219.672Z" transform="translate(-591.453 -185.213)"/></g><g transform="translate(166.44)"><path class="b" d="M741.281,144.21h18.631v61.169H741.281Z" transform="translate(-741.281 -144.21)"/></g><g transform="translate(195.786 5.935)"><path class="b" d="M857.524,213.835q-4.2,2.391-11.458,2.391-9.481,0-14.591-4.575t-5.111-13.726V186.383H820.18v-13.6h6.183V160.168h18.631v12.613h9.233v13.6h-9.233v11.376a4.541,4.541,0,0,0,1.072,3.215,3.642,3.642,0,0,0,2.8,1.155,7.282,7.282,0,0,0,4.2-1.237Z" transform="translate(-820.18 -160.168)"/></g><g transform="translate(238.652)"><path class="b" d="M980.153,164.49q5.07,5.028,5.07,15.168v25.721H966.591V182.874q0-7.748-5.523-7.749a6.454,6.454,0,0,0-5.07,2.185q-1.938,2.185-1.937,6.883v21.187H935.43V144.21h18.631v19.7a18.832,18.832,0,0,1,12.7-4.452Q975.082,159.461,980.153,164.49Z" transform="translate(-935.43 -144.21)"/></g><g transform="translate(5 54.544)"><path class="a" d="M348.248,308.952a20.584,20.584,0,0,1,7.914,8.162,27.5,27.5,0,0,1,0,24.69,20.512,20.512,0,0,1-7.914,8.2,21.672,21.672,0,0,1-10.923,2.844q-8.327,0-12.366-4.534v3.71H307.236V290.857h18.631v19.126q3.957-3.874,11.459-3.875A21.673,21.673,0,0,1,348.248,308.952Zm-10.1,27.039a9.612,9.612,0,0,0,2.061-6.554,9.453,9.453,0,0,0-2.061-6.512,7.184,7.184,0,0,0-10.552,0,9.446,9.446,0,0,0-2.061,6.512,9.6,9.6,0,0,0,2.061,6.554,7.1,7.1,0,0,0,10.552,0Z" transform="translate(-307.236 -290.857)"/><g transform="translate(117.509 15.251)"><path class="a" d="M635.9,375.593a23.14,23.14,0,0,1-9.356-8.326,23.265,23.265,0,0,1,0-24.154,22.856,22.856,0,0,1,9.356-8.285,32.276,32.276,0,0,1,27.04,0,22.579,22.579,0,0,1,9.315,8.285,23.512,23.512,0,0,1,0,24.154,22.858,22.858,0,0,1-9.315,8.326,31.873,31.873,0,0,1-27.04,0Z" transform="translate(-623.168 -331.86)"/></g><g transform="translate(176.616)"><path class="a" d="M803.681,338.176l-2.968,3.214v10.635H782.082V290.857h18.631V320.04l12.942-13.108h22.011L817.035,326.47l20.115,25.556H814.645Z" transform="translate(-782.082 -290.857)"/></g></g><g transform="translate(0.215 43.625)"><path class="b" d="M310.92,290.731a1.988,1.988,0,0,1-1.453-.633l-5.809-6.106L297.85,290.1a2,2,0,0,1-2.242.466,2.074,2.074,0,0,1-1.236-1.9V267.057a5.461,5.461,0,0,1,5.344-5.559H307.6a5.461,5.461,0,0,1,5.345,5.559v21.605a2.068,2.068,0,0,1-1.226,1.9A1.986,1.986,0,0,1,310.92,290.731Zm-7.262-8.427,6.652,6.993a.83.83,0,0,0,.943.2.9.9,0,0,0,.531-.834V267.057a4.3,4.3,0,0,0-4.182-4.4h-7.887a4.3,4.3,0,0,0-4.18,4.4v21.605a.91.91,0,0,0,.537.836.85.85,0,0,0,.931-.2Z" transform="translate(-294.371 -261.498)"/></g></g><g transform="translate(297.526 289.753)"><path class="a" d="M306.428,560.3a4.564,4.564,0,0,1-1.921-1.794,5.257,5.257,0,0,1-.679-2.7,7.524,7.524,0,0,1,.9-3.682,6.58,6.58,0,0,1,2.5-2.565,7.019,7.019,0,0,1,3.6-.932,5.662,5.662,0,0,1,4.015,1.381,4.844,4.844,0,0,1,1.483,3.727,7.575,7.575,0,0,1-.9,3.692,6.561,6.561,0,0,1-2.5,2.578,7.027,7.027,0,0,1-3.6.932A6.3,6.3,0,0,1,306.428,560.3Zm5.706-1.541a5.037,5.037,0,0,0,1.875-2.024,6.2,6.2,0,0,0,.678-2.91,3.652,3.652,0,0,0-1.047-2.772,4.072,4.072,0,0,0-2.933-1,5.032,5.032,0,0,0-2.692.736,5.109,5.109,0,0,0-1.875,2.036,6.193,6.193,0,0,0-.678,2.91,3.613,3.613,0,0,0,1.047,2.761,4.1,4.1,0,0,0,2.933.989A5.09,5.09,0,0,0,312.133,558.761Z" transform="translate(-303.828 -543.75)"/><path class="a" d="M365.931,549.191a6.978,6.978,0,0,1,2.945-.564l-.3,1.588-.46-.023a4.62,4.62,0,0,0-3.21,1.127,5.882,5.882,0,0,0-1.69,3.359L362,560.821h-1.633l2.392-12.1h1.565l-.414,2.208A4.954,4.954,0,0,1,365.931,549.191Z" transform="translate(-339.335 -543.75)"/><path class="a" d="M386.307,555.231a3.576,3.576,0,0,0-.023.483,3.63,3.63,0,0,0,1.047,2.807,4.453,4.453,0,0,0,3.117.966,6.188,6.188,0,0,0,2.244-.4,4.515,4.515,0,0,0,1.714-1.116l.736,1.174a5.8,5.8,0,0,1-2.128,1.323,7.735,7.735,0,0,1-2.7.472,5.879,5.879,0,0,1-4.13-1.381,4.86,4.86,0,0,1-1.507-3.773,7.708,7.708,0,0,1,.863-3.658,6.445,6.445,0,0,1,5.832-3.5A5.318,5.318,0,0,1,395.211,550a4.969,4.969,0,0,1,1.426,3.762,7.612,7.612,0,0,1-.161,1.472Zm1.909-4.142a5.4,5.4,0,0,0-1.748,2.922H395.1a3.274,3.274,0,0,0,.023-.437,3.361,3.361,0,0,0-1.035-2.634,3.97,3.97,0,0,0-2.761-.932A4.677,4.677,0,0,0,388.216,551.089Z" transform="translate(-354.603 -543.75)"/><path class="a" d="M435.027,548.719l-2.116,10.629a7.749,7.749,0,0,1-2.335,4.613,7.1,7.1,0,0,1-4.7,1.438,9.417,9.417,0,0,1-3.072-.472,6.428,6.428,0,0,1-2.312-1.346l.966-1.242a4.95,4.95,0,0,0,1.921,1.185,7.673,7.673,0,0,0,2.611.425,5.367,5.367,0,0,0,3.543-1.059,5.478,5.478,0,0,0,1.7-3.267l.277-1.335a5.985,5.985,0,0,1-2.106,1.531,6.705,6.705,0,0,1-2.726.541,5.585,5.585,0,0,1-3.877-1.311,4.551,4.551,0,0,1-1.461-3.566,6.974,6.974,0,0,1,.886-3.5,6.437,6.437,0,0,1,2.462-2.462,7.055,7.055,0,0,1,3.554-.9,5.943,5.943,0,0,1,2.968.7,3.826,3.826,0,0,1,1.748,2.059l.506-2.669Zm-5.326,9.5a4.908,4.908,0,0,0,1.887-1.909,5.539,5.539,0,0,0,.679-2.738,3.267,3.267,0,0,0-1.059-2.588,4.306,4.306,0,0,0-2.945-.932,5.336,5.336,0,0,0-2.714.69,4.936,4.936,0,0,0-1.875,1.91,5.531,5.531,0,0,0-.679,2.738,3.27,3.27,0,0,0,1.058,2.588,4.307,4.307,0,0,0,2.945.932A5.348,5.348,0,0,0,429.7,558.221Z" transform="translate(-377.096 -543.75)"/><path class="a" d="M468.4,540.484h1.634l-2.393,12.1h-1.633Zm.725-2.968a1.056,1.056,0,0,1-.311-.759,1.2,1.2,0,0,1,.357-.886,1.233,1.233,0,0,1,.909-.356,1.115,1.115,0,0,1,.8.31.979.979,0,0,1,.322.725,1.258,1.258,0,0,1-1.288,1.288A1.054,1.054,0,0,1,469.129,537.515Z" transform="translate(-405.689 -535.514)"/><path class="a" d="M481.843,560.521a5.422,5.422,0,0,1-2.036-1.058l.782-1.288a5.21,5.21,0,0,0,1.817.966,7.587,7.587,0,0,0,2.37.367,5.166,5.166,0,0,0,2.658-.563,1.773,1.773,0,0,0,.932-1.6,1.185,1.185,0,0,0-.38-.921,2.583,2.583,0,0,0-.932-.529,16.561,16.561,0,0,0-1.611-.414,17.715,17.715,0,0,1-2.048-.552,3.266,3.266,0,0,1-1.335-.874,2.348,2.348,0,0,1-.552-1.657,3.216,3.216,0,0,1,1.427-2.749,6.422,6.422,0,0,1,3.819-1.024,8.509,8.509,0,0,1,2.29.311,5.566,5.566,0,0,1,1.805.816l-.69,1.312a5.062,5.062,0,0,0-1.622-.771,7.02,7.02,0,0,0-1.921-.265,4.708,4.708,0,0,0-2.576.6,1.835,1.835,0,0,0-.92,1.61,1.263,1.263,0,0,0,.391.966,2.487,2.487,0,0,0,.977.552q.587.184,1.6.391a19.271,19.271,0,0,1,2.013.541,3.182,3.182,0,0,1,1.323.863,2.279,2.279,0,0,1,.552,1.61,3.18,3.18,0,0,1-1.461,2.772,6.789,6.789,0,0,1-3.9,1A9.2,9.2,0,0,1,481.843,560.521Z" transform="translate(-414.353 -543.75)"/><path class="a" d="M517.186,552.85a5.564,5.564,0,0,0-.092.76q0,1.611,1.749,1.61a3.026,3.026,0,0,0,1.863-.621l.391,1.243a4.347,4.347,0,0,1-2.692.782,3.035,3.035,0,0,1-2.151-.737,2.624,2.624,0,0,1-.794-2.024,4.587,4.587,0,0,1,.092-.943l1.4-7.133h-2.139l.253-1.38h2.162l.529-2.646h1.633l-.529,2.646h3.681l-.277,1.38h-3.681Z" transform="translate(-436.34 -539.437)"/><path class="a" d="M545.436,549.191a6.981,6.981,0,0,1,2.945-.564l-.3,1.588-.46-.023a4.619,4.619,0,0,0-3.21,1.127,5.885,5.885,0,0,0-1.69,3.359l-1.22,6.143h-1.633l2.393-12.1h1.565l-.415,2.208A4.956,4.956,0,0,1,545.436,549.191Z" transform="translate(-452.075 -543.75)"/><path class="a" d="M566.777,560.3a4.568,4.568,0,0,1-1.922-1.794,5.26,5.26,0,0,1-.678-2.7,7.524,7.524,0,0,1,.9-3.682,6.582,6.582,0,0,1,2.5-2.565,7.021,7.021,0,0,1,3.6-.932,5.663,5.663,0,0,1,4.016,1.381,4.844,4.844,0,0,1,1.483,3.727,7.575,7.575,0,0,1-.9,3.692,6.561,6.561,0,0,1-2.5,2.578,7.027,7.027,0,0,1-3.6.932A6.3,6.3,0,0,1,566.777,560.3Zm5.706-1.541a5.037,5.037,0,0,0,1.875-2.024,6.2,6.2,0,0,0,.678-2.91,3.652,3.652,0,0,0-1.047-2.772,4.072,4.072,0,0,0-2.933-1,5.031,5.031,0,0,0-2.692.736,5.109,5.109,0,0,0-1.875,2.036,6.193,6.193,0,0,0-.678,2.91,3.612,3.612,0,0,0,1.047,2.761,4.1,4.1,0,0,0,2.933.989A5.091,5.091,0,0,0,572.483,558.761Z" transform="translate(-467.342 -543.75)"/><path class="a" d="M634.968,535.514l-3.4,17.071H630l.391-1.91a6.088,6.088,0,0,1-2.07,1.5,6.475,6.475,0,0,1-2.646.529,5.847,5.847,0,0,1-2.737-.622,4.482,4.482,0,0,1-1.863-1.783,5.372,5.372,0,0,1-.668-2.726,7.6,7.6,0,0,1,.885-3.682,6.573,6.573,0,0,1,2.451-2.565,6.708,6.708,0,0,1,3.5-.932,5.738,5.738,0,0,1,2.888.679,3.936,3.936,0,0,1,1.714,1.944l1.495-7.5Zm-6.258,15.012a5.041,5.041,0,0,0,1.875-2.024,6.2,6.2,0,0,0,.678-2.91,3.651,3.651,0,0,0-1.047-2.772,4.071,4.071,0,0,0-2.933-1,5.031,5.031,0,0,0-2.692.736,5.105,5.105,0,0,0-1.875,2.036,6.194,6.194,0,0,0-.679,2.91,3.613,3.613,0,0,0,1.047,2.761,4.1,4.1,0,0,0,2.933.989A5.091,5.091,0,0,0,628.71,550.526Z" transform="translate(-502.656 -535.514)"/><path class="a" d="M676.534,548.719l-2.415,12.1h-1.565l.391-1.91a6.087,6.087,0,0,1-2.07,1.5,6.475,6.475,0,0,1-2.646.529,5.849,5.849,0,0,1-2.737-.622,4.483,4.483,0,0,1-1.863-1.783,5.373,5.373,0,0,1-.668-2.726,7.6,7.6,0,0,1,.885-3.682,6.577,6.577,0,0,1,2.45-2.565,6.708,6.708,0,0,1,3.5-.932,5.717,5.717,0,0,1,2.9.678,3.949,3.949,0,0,1,1.7,1.944l.506-2.53Zm-5.268,10.042a5.036,5.036,0,0,0,1.875-2.024,6.2,6.2,0,0,0,.679-2.91,3.651,3.651,0,0,0-1.047-2.772,4.071,4.071,0,0,0-2.933-1,5.033,5.033,0,0,0-2.692.736,5.109,5.109,0,0,0-1.875,2.036,6.188,6.188,0,0,0-.679,2.91,3.613,3.613,0,0,0,1.047,2.761,4.1,4.1,0,0,0,2.933.989A5.091,5.091,0,0,0,671.266,558.761Z" transform="translate(-529.383 -543.75)"/><path class="a" d="M721.223,560.521a5.423,5.423,0,0,1-2.036-1.058l.782-1.288a5.216,5.216,0,0,0,1.817.966,7.587,7.587,0,0,0,2.37.367,5.164,5.164,0,0,0,2.657-.563,1.772,1.772,0,0,0,.932-1.6,1.185,1.185,0,0,0-.38-.921,2.583,2.583,0,0,0-.932-.529,16.6,16.6,0,0,0-1.611-.414,17.691,17.691,0,0,1-2.047-.552,3.265,3.265,0,0,1-1.335-.874,2.348,2.348,0,0,1-.552-1.657,3.215,3.215,0,0,1,1.427-2.749,6.421,6.421,0,0,1,3.819-1.024,8.511,8.511,0,0,1,2.29.311,5.569,5.569,0,0,1,1.805.816l-.69,1.312a5.066,5.066,0,0,0-1.622-.771A7.02,7.02,0,0,0,726,550.03a4.707,4.707,0,0,0-2.576.6,1.834,1.834,0,0,0-.92,1.61,1.263,1.263,0,0,0,.391.966,2.485,2.485,0,0,0,.977.552q.587.184,1.6.391a19.226,19.226,0,0,1,2.013.541,3.183,3.183,0,0,1,1.323.863,2.279,2.279,0,0,1,.552,1.61,3.18,3.18,0,0,1-1.461,2.772,6.79,6.79,0,0,1-3.9,1A9.206,9.206,0,0,1,721.223,560.521Z" transform="translate(-564.697 -543.75)"/><path class="a" d="M768.12,548.875l-2.416,12.1h-1.564l.391-1.933a5.749,5.749,0,0,1-4.67,2.048,4.5,4.5,0,0,1-3.163-1.047,3.756,3.756,0,0,1-1.138-2.91,7.1,7.1,0,0,1,.138-1.357l1.381-6.9h1.633l-1.381,6.9a6.33,6.33,0,0,0-.115,1.081,2.651,2.651,0,0,0,.771,2.048,3.3,3.3,0,0,0,2.312.713,4.752,4.752,0,0,0,3.2-1.082,5.479,5.479,0,0,0,1.7-3.151l1.289-6.511Z" transform="translate(-587.541 -543.905)"/><path class="a" d="M809.03,548.719l-2.415,12.1H805.05l.391-1.91a6.083,6.083,0,0,1-2.07,1.5,6.474,6.474,0,0,1-2.646.529,5.848,5.848,0,0,1-2.737-.622,4.488,4.488,0,0,1-1.864-1.783,5.376,5.376,0,0,1-.667-2.726,7.6,7.6,0,0,1,.885-3.682,6.579,6.579,0,0,1,2.45-2.565,6.709,6.709,0,0,1,3.5-.932,5.716,5.716,0,0,1,2.9.678,3.949,3.949,0,0,1,1.7,1.944l.506-2.53Zm-5.268,10.042a5.036,5.036,0,0,0,1.875-2.024,6.2,6.2,0,0,0,.679-2.91,3.651,3.651,0,0,0-1.047-2.772,4.071,4.071,0,0,0-2.933-1,5.033,5.033,0,0,0-2.692.736,5.109,5.109,0,0,0-1.875,2.036,6.189,6.189,0,0,0-.679,2.91,3.613,3.613,0,0,0,1.047,2.761,4.1,4.1,0,0,0,2.933.989A5.093,5.093,0,0,0,803.762,558.761Z" transform="translate(-612.598 -543.75)"/><path class="a" d="M853.719,560.521a5.423,5.423,0,0,1-2.036-1.058l.782-1.288a5.216,5.216,0,0,0,1.817.966,7.587,7.587,0,0,0,2.37.367,5.164,5.164,0,0,0,2.657-.563,1.772,1.772,0,0,0,.932-1.6,1.185,1.185,0,0,0-.38-.921,2.583,2.583,0,0,0-.932-.529,16.59,16.59,0,0,0-1.611-.414,17.7,17.7,0,0,1-2.047-.552,3.265,3.265,0,0,1-1.335-.874,2.348,2.348,0,0,1-.552-1.657,3.215,3.215,0,0,1,1.427-2.749,6.421,6.421,0,0,1,3.819-1.024,8.512,8.512,0,0,1,2.29.311,5.571,5.571,0,0,1,1.805.816l-.69,1.312a5.067,5.067,0,0,0-1.622-.771,7.02,7.02,0,0,0-1.921-.265,4.707,4.707,0,0,0-2.576.6,1.834,1.834,0,0,0-.92,1.61,1.265,1.265,0,0,0,.391.966,2.49,2.49,0,0,0,.978.552q.587.184,1.6.391a19.226,19.226,0,0,1,2.013.541,3.183,3.183,0,0,1,1.323.863,2.279,2.279,0,0,1,.552,1.61,3.18,3.18,0,0,1-1.461,2.772,6.79,6.79,0,0,1-3.9,1A9.206,9.206,0,0,1,853.719,560.521Z" transform="translate(-647.912 -543.75)"/><path class="a" d="M899.276,548.719l-2.415,12.1H895.3l.391-1.91a6.084,6.084,0,0,1-2.071,1.5,6.473,6.473,0,0,1-2.646.529,5.849,5.849,0,0,1-2.737-.622,4.486,4.486,0,0,1-1.864-1.783,5.376,5.376,0,0,1-.667-2.726,7.6,7.6,0,0,1,.885-3.682,6.578,6.578,0,0,1,2.45-2.565,6.708,6.708,0,0,1,3.5-.932,5.717,5.717,0,0,1,2.9.678,3.948,3.948,0,0,1,1.7,1.944l.506-2.53Zm-5.268,10.042a5.037,5.037,0,0,0,1.875-2.024,6.2,6.2,0,0,0,.679-2.91,3.651,3.651,0,0,0-1.047-2.772,4.071,4.071,0,0,0-2.933-1,5.033,5.033,0,0,0-2.692.736,5.109,5.109,0,0,0-1.875,2.036,6.19,6.19,0,0,0-.679,2.91,3.613,3.613,0,0,0,1.047,2.761,4.1,4.1,0,0,0,2.933.989A5.092,5.092,0,0,0,894.008,558.761Z" transform="translate(-669.278 -543.75)"/><path class="a" d="M943.172,540.872l-2.416,12.1h-1.564l.391-1.933a5.749,5.749,0,0,1-4.67,2.048,4.5,4.5,0,0,1-3.163-1.047,3.755,3.755,0,0,1-1.139-2.91,7.141,7.141,0,0,1,.138-1.357l1.381-6.9h1.633l-1.381,6.9a6.334,6.334,0,0,0-.115,1.081,2.653,2.653,0,0,0,.77,2.048,3.3,3.3,0,0,0,2.313.713,4.75,4.75,0,0,0,3.2-1.082,5.477,5.477,0,0,0,1.7-3.151l1.289-6.511Zm-3.2-4.739h2.232l-4.026,2.852h-1.7Z" transform="translate(-697.483 -535.903)"/><path class="a" d="M985.071,535.514l-3.405,17.071H980.1l.391-1.91a6.084,6.084,0,0,1-2.071,1.5,6.474,6.474,0,0,1-2.646.529,5.85,5.85,0,0,1-2.737-.622,4.483,4.483,0,0,1-1.863-1.783,5.372,5.372,0,0,1-.668-2.726,7.6,7.6,0,0,1,.885-3.682,6.576,6.576,0,0,1,2.451-2.565,6.709,6.709,0,0,1,3.5-.932,5.737,5.737,0,0,1,2.887.679,3.936,3.936,0,0,1,1.714,1.944l1.5-7.5Zm-6.258,15.012a5.037,5.037,0,0,0,1.875-2.024,6.2,6.2,0,0,0,.679-2.91,3.652,3.652,0,0,0-1.047-2.772,4.072,4.072,0,0,0-2.933-1,5.032,5.032,0,0,0-2.692.736,5.108,5.108,0,0,0-1.875,2.036,6.189,6.189,0,0,0-.679,2.91,3.611,3.611,0,0,0,1.047,2.761,4.1,4.1,0,0,0,2.933.989A5.092,5.092,0,0,0,978.813,550.526Z" transform="translate(-722.54 -535.514)"/><path class="a" d="M1014.7,555.231a3.576,3.576,0,0,0-.023.483,3.63,3.63,0,0,0,1.047,2.807,4.453,4.453,0,0,0,3.117.966,6.188,6.188,0,0,0,2.244-.4,4.515,4.515,0,0,0,1.714-1.116l.736,1.174a5.8,5.8,0,0,1-2.128,1.323,7.734,7.734,0,0,1-2.7.472,5.879,5.879,0,0,1-4.13-1.381,4.859,4.859,0,0,1-1.507-3.773,7.709,7.709,0,0,1,.863-3.658,6.445,6.445,0,0,1,5.833-3.5A5.318,5.318,0,0,1,1023.6,550a4.969,4.969,0,0,1,1.426,3.762,7.606,7.606,0,0,1-.161,1.472Zm1.909-4.142a5.4,5.4,0,0,0-1.748,2.922h8.628a3.3,3.3,0,0,0,.023-.437,3.362,3.362,0,0,0-1.035-2.634,3.97,3.97,0,0,0-2.761-.932A4.677,4.677,0,0,0,1016.606,551.089Z" transform="translate(-749.268 -543.75)"/><path class="a" d="M315.63,611.528a3.727,3.727,0,0,1,1.139,2.887,7.484,7.484,0,0,1-.138,1.38l-1.38,6.879h-1.634l1.381-6.9a6.424,6.424,0,0,0,.115-1.1,2.545,2.545,0,0,0-.793-2.013,3.428,3.428,0,0,0-2.335-.7,4.815,4.815,0,0,0-3.221,1.07,5.435,5.435,0,0,0-1.7,3.163l-1.289,6.487h-1.633l2.392-12.1H308.1l-.391,1.932a5.9,5.9,0,0,1,4.739-2.025A4.536,4.536,0,0,1,315.63,611.528Z" transform="translate(-304.023 -582.598)"/><path class="a" d="M360.021,610.574l-2.415,12.1h-1.565l.391-1.91a6.084,6.084,0,0,1-2.07,1.5,6.481,6.481,0,0,1-2.646.529,5.843,5.843,0,0,1-2.737-.622,4.48,4.48,0,0,1-1.863-1.783,5.372,5.372,0,0,1-.668-2.726,7.6,7.6,0,0,1,.886-3.682,6.574,6.574,0,0,1,2.45-2.566,6.707,6.707,0,0,1,3.5-.932,5.714,5.714,0,0,1,2.9.679,3.952,3.952,0,0,1,1.7,1.944l.506-2.53Zm-5.268,10.042a5.038,5.038,0,0,0,1.875-2.024,6.2,6.2,0,0,0,.678-2.91,3.653,3.653,0,0,0-1.047-2.772,4.073,4.073,0,0,0-2.933-1,5.035,5.035,0,0,0-2.692.736,5.112,5.112,0,0,0-1.875,2.036,6.193,6.193,0,0,0-.678,2.91,3.613,3.613,0,0,0,1.047,2.761,4.1,4.1,0,0,0,2.933.989A5.091,5.091,0,0,0,354.753,620.616Z" transform="translate(-330.595 -582.598)"/><path class="a" d="M415.654,611.1a4.5,4.5,0,0,1,1.875,1.772,5.323,5.323,0,0,1,.667,2.714,7.661,7.661,0,0,1-.886,3.693,6.555,6.555,0,0,1-2.45,2.577,6.751,6.751,0,0,1-3.52.932,5.711,5.711,0,0,1-2.9-.678,3.928,3.928,0,0,1-1.7-1.968l-1.381,6.995h-1.633l3.29-16.565h1.565l-.391,1.932a5.809,5.809,0,0,1,2.07-1.507,6.6,6.6,0,0,1,2.646-.518A5.928,5.928,0,0,1,415.654,611.1ZM414,620.616a5.078,5.078,0,0,0,1.863-2.013,6.171,6.171,0,0,0,.678-2.921,3.652,3.652,0,0,0-1.047-2.772,4.071,4.071,0,0,0-2.933-1,4.979,4.979,0,0,0-4.544,2.749,6.247,6.247,0,0,0-.678,2.934,3.616,3.616,0,0,0,1.047,2.761,4.106,4.106,0,0,0,2.934.989A5.032,5.032,0,0,0,414,620.616Z" transform="translate(-366.569 -582.598)"/><path class="a" d="M461.958,610.574l-2.415,12.1h-1.565l.391-1.91a6.084,6.084,0,0,1-2.07,1.5,6.48,6.48,0,0,1-2.646.529,5.843,5.843,0,0,1-2.737-.622,4.478,4.478,0,0,1-1.863-1.783,5.372,5.372,0,0,1-.668-2.726,7.6,7.6,0,0,1,.885-3.682,6.579,6.579,0,0,1,2.45-2.566,6.708,6.708,0,0,1,3.5-.932,5.711,5.711,0,0,1,2.9.679,3.949,3.949,0,0,1,1.7,1.944l.506-2.53Zm-5.268,10.042a5.037,5.037,0,0,0,1.875-2.024,6.2,6.2,0,0,0,.679-2.91,3.652,3.652,0,0,0-1.047-2.772,4.071,4.071,0,0,0-2.933-1,5.036,5.036,0,0,0-2.692.736,5.111,5.111,0,0,0-1.875,2.036,6.189,6.189,0,0,0-.679,2.91,3.614,3.614,0,0,0,1.047,2.761,4.1,4.1,0,0,0,2.933.989A5.091,5.091,0,0,0,456.69,620.616Z" transform="translate(-394.617 -582.598)"/><path class="a" d="M494.656,597.368h1.634l-3.406,17.071h-1.633Z" transform="translate(-421.54 -574.362)"/><path class="a" d="M528.882,611.505A3.693,3.693,0,0,1,530,614.369a8.486,8.486,0,0,1-.161,1.426l-1.38,6.879h-1.634l1.381-6.9a5.329,5.329,0,0,0,.115-1.128,2.574,2.574,0,0,0-.759-1.99,3.18,3.18,0,0,0-2.232-.7,4.6,4.6,0,0,0-3.06,1.024A5.163,5.163,0,0,0,520.634,616l-1.334,6.672h-1.634l1.381-6.9a6.421,6.421,0,0,0,.115-1.1,2.626,2.626,0,0,0-.748-2.013,3.171,3.171,0,0,0-2.243-.7,4.5,4.5,0,0,0-3.083,1.07,5.571,5.571,0,0,0-1.656,3.163l-1.289,6.487H508.51l2.392-12.1h1.565l-.391,1.932a5.592,5.592,0,0,1,4.578-2.025,4.822,4.822,0,0,1,2.542.622,3.218,3.218,0,0,1,1.415,1.794,5.8,5.8,0,0,1,2.2-1.806,6.775,6.775,0,0,1,2.91-.61A4.513,4.513,0,0,1,528.882,611.505Z" transform="translate(-432.38 -582.598)"/><path class="a" d="M588.142,610.574l-2.415,12.1h-1.565l.391-1.91a6.084,6.084,0,0,1-2.07,1.5,6.481,6.481,0,0,1-2.646.529,5.843,5.843,0,0,1-2.737-.622,4.48,4.48,0,0,1-1.863-1.783,5.372,5.372,0,0,1-.668-2.726,7.6,7.6,0,0,1,.886-3.682,6.574,6.574,0,0,1,2.45-2.566,6.707,6.707,0,0,1,3.5-.932,5.714,5.714,0,0,1,2.9.679A3.952,3.952,0,0,1,586,613.1l.506-2.53Zm-5.268,10.042a5.038,5.038,0,0,0,1.875-2.024,6.205,6.205,0,0,0,.679-2.91,3.653,3.653,0,0,0-1.047-2.772,4.072,4.072,0,0,0-2.933-1,5.035,5.035,0,0,0-2.692.736,5.112,5.112,0,0,0-1.875,2.036,6.193,6.193,0,0,0-.678,2.91,3.614,3.614,0,0,0,1.047,2.761,4.1,4.1,0,0,0,2.933.989A5.091,5.091,0,0,0,582.874,620.616Z" transform="translate(-473.868 -582.598)"/><path class="a" d="M648.513,597.368l-3.4,17.071h-1.565l.391-1.91a6.081,6.081,0,0,1-2.07,1.5,6.48,6.48,0,0,1-2.646.529,5.844,5.844,0,0,1-2.737-.622,4.477,4.477,0,0,1-1.863-1.783,5.372,5.372,0,0,1-.668-2.726,7.594,7.594,0,0,1,.886-3.681,6.574,6.574,0,0,1,2.45-2.566,6.708,6.708,0,0,1,3.5-.932,5.734,5.734,0,0,1,2.888.679,3.936,3.936,0,0,1,1.714,1.944l1.495-7.5Zm-6.258,15.012a5.041,5.041,0,0,0,1.875-2.024,6.205,6.205,0,0,0,.678-2.911,3.652,3.652,0,0,0-1.047-2.772,4.071,4.071,0,0,0-2.933-1,5.035,5.035,0,0,0-2.691.736,5.11,5.11,0,0,0-1.875,2.036,6.2,6.2,0,0,0-.679,2.91,3.614,3.614,0,0,0,1.047,2.761,4.1,4.1,0,0,0,2.933.989A5.092,5.092,0,0,0,642.255,612.38Z" transform="translate(-511.163 -574.362)"/><path class="a" d="M690.081,610.574l-2.415,12.1H686.1l.391-1.91a6.081,6.081,0,0,1-2.071,1.5,6.479,6.479,0,0,1-2.646.529,5.846,5.846,0,0,1-2.738-.622,4.48,4.48,0,0,1-1.863-1.783,5.376,5.376,0,0,1-.667-2.726,7.6,7.6,0,0,1,.885-3.682,6.578,6.578,0,0,1,2.45-2.566,6.708,6.708,0,0,1,3.5-.932,5.712,5.712,0,0,1,2.9.679,3.949,3.949,0,0,1,1.7,1.944l.506-2.53Zm-5.268,10.042a5.037,5.037,0,0,0,1.875-2.024,6.2,6.2,0,0,0,.679-2.91,3.652,3.652,0,0,0-1.047-2.772,4.072,4.072,0,0,0-2.933-1,5.036,5.036,0,0,0-2.692.736,5.11,5.11,0,0,0-1.875,2.036,6.188,6.188,0,0,0-.679,2.91,3.613,3.613,0,0,0,1.047,2.761,4.1,4.1,0,0,0,2.933.989A5.092,5.092,0,0,0,684.813,620.616Z" transform="translate(-537.891 -582.598)"/><path class="a" d="M756.569,611.505a3.693,3.693,0,0,1,1.116,2.864,8.51,8.51,0,0,1-.161,1.426l-1.38,6.879H754.51l1.381-6.9a5.3,5.3,0,0,0,.115-1.128,2.574,2.574,0,0,0-.759-1.99,3.18,3.18,0,0,0-2.232-.7,4.6,4.6,0,0,0-3.06,1.024A5.166,5.166,0,0,0,748.321,616l-1.334,6.672h-1.634l1.381-6.9a6.433,6.433,0,0,0,.115-1.1,2.626,2.626,0,0,0-.748-2.013,3.171,3.171,0,0,0-2.243-.7,4.5,4.5,0,0,0-3.083,1.07,5.57,5.57,0,0,0-1.656,3.163l-1.289,6.487H736.2l2.392-12.1h1.565l-.391,1.932a5.592,5.592,0,0,1,4.578-2.025,4.823,4.823,0,0,1,2.542.622A3.218,3.218,0,0,1,748.3,612.9a5.8,5.8,0,0,1,2.2-1.806,6.775,6.775,0,0,1,2.91-.61A4.512,4.512,0,0,1,756.569,611.505Z" transform="translate(-575.38 -582.598)"/><path class="a" d="M815.833,602.882l-2.415,12.1h-1.565l.391-1.91a6.083,6.083,0,0,1-2.07,1.5,6.48,6.48,0,0,1-2.646.529,5.844,5.844,0,0,1-2.737-.622,4.479,4.479,0,0,1-1.863-1.783,5.371,5.371,0,0,1-.668-2.726,7.6,7.6,0,0,1,.885-3.682,6.579,6.579,0,0,1,2.45-2.566,6.709,6.709,0,0,1,3.5-.932,5.712,5.712,0,0,1,2.9.679,3.948,3.948,0,0,1,1.7,1.944l.506-2.53Zm-5.268,10.042a5.037,5.037,0,0,0,1.875-2.024,6.2,6.2,0,0,0,.679-2.91,3.652,3.652,0,0,0-1.047-2.772,4.071,4.071,0,0,0-2.933-1,5.036,5.036,0,0,0-2.692.736,5.111,5.111,0,0,0-1.875,2.036,6.189,6.189,0,0,0-.679,2.91,3.613,3.613,0,0,0,1.047,2.761,4.1,4.1,0,0,0,2.933.989A5.091,5.091,0,0,0,810.565,612.924Zm.759-12.3a5.345,5.345,0,0,1-.851-.644,5.391,5.391,0,0,0-.668-.518,1.106,1.106,0,0,0-.6-.173,1.079,1.079,0,0,0-.852.4,2.179,2.179,0,0,0-.46,1.07h-.989a3.435,3.435,0,0,1,.8-1.864,2,2,0,0,1,1.519-.668,1.747,1.747,0,0,1,.886.219,6.1,6.1,0,0,1,.886.656,4.792,4.792,0,0,0,.633.517,1.049,1.049,0,0,0,.587.173,1.125,1.125,0,0,0,.862-.391,2.038,2.038,0,0,0,.472-1.036h.989a3.384,3.384,0,0,1-.794,1.829,2,2,0,0,1-1.529.656A1.736,1.736,0,0,1,811.324,600.627Z" transform="translate(-616.871 -574.906)"/><path class="a" d="M847.415,622.157a4.569,4.569,0,0,1-1.921-1.795,5.259,5.259,0,0,1-.678-2.7,7.519,7.519,0,0,1,.9-3.682,6.577,6.577,0,0,1,2.5-2.566,7.02,7.02,0,0,1,3.6-.932,5.664,5.664,0,0,1,4.015,1.381,4.845,4.845,0,0,1,1.484,3.727,7.573,7.573,0,0,1-.9,3.693,6.556,6.556,0,0,1-2.5,2.577,7.024,7.024,0,0,1-3.6.932A6.3,6.3,0,0,1,847.415,622.157Zm5.706-1.541A5.038,5.038,0,0,0,855,618.592a6.2,6.2,0,0,0,.679-2.91,3.652,3.652,0,0,0-1.047-2.772,4.072,4.072,0,0,0-2.933-1,5.036,5.036,0,0,0-2.692.736,5.11,5.11,0,0,0-1.875,2.036,6.188,6.188,0,0,0-.679,2.91,3.614,3.614,0,0,0,1.047,2.761,4.1,4.1,0,0,0,2.933.989A5.092,5.092,0,0,0,853.121,620.616Z" transform="translate(-643.599 -582.598)"/><path class="a" d="M881.656,639a1.153,1.153,0,0,1-.345-.851,1.265,1.265,0,0,1,.379-.932,1.239,1.239,0,0,1,.909-.379,1.117,1.117,0,0,1,.839.345,1.181,1.181,0,0,1,.334.851,1.266,1.266,0,0,1-.379.932,1.215,1.215,0,0,1-.886.38A1.156,1.156,0,0,1,881.656,639Z" transform="translate(-666.52 -599.148)"/></g></g></svg>